<svg xmlns="http://www.w3.org/2000/svg" xmlns:xlink="http://www.w3.org/1999/xlink" id="Layer_1" width="142" height="50" x="0" y="0" enable-background="new 0 0 142 50" version="1.1" viewBox="0 0 142 50" xml:space="preserve"><rect width="71" height="71" y="-10.5" fill="#FFF" display="none"/><rect width="48.9" height="48.825" x=".1" y=".5" fill="#DA2C45"/><g><polygon points="37.791 3.856 49 15.215 49 .5 33.996 .5"/><polygon points="33.544 9.897 13.436 30.5 49 30.5 49 25.609"/><polygon points="33.842 .5 0 .5 0 30.5 3.202 30.5"/></g><g><path d="M63.369,13.841h8.725c2.396,0,4.266,0.511,5.609,1.532c1.342,1.021,2.014,2.35,2.014,3.988c0,0.771-0.15,1.537-0.449,2.298 s-0.816,1.44-1.551,2.037c0.734,0.561,1.338,1.29,1.813,2.189c0.473,0.898,0.709,1.946,0.709,3.145 c0,0.734-0.154,1.479-0.463,2.232c-0.31,0.753-0.836,1.449-1.58,2.086c-0.744,0.638-1.585,1.063-2.521,1.275 c-0.938,0.213-1.86,0.319-2.769,0.319h-9.536V13.841z M67.717,22.247h4.928c0.967,0,1.695-0.192,2.188-0.576 s0.739-0.989,0.739-1.815c0-0.845-0.242-1.455-0.725-1.829c-0.483-0.375-1.141-0.562-1.971-0.562h-5.16V22.247z M67.717,31.319 h5.102c0.967,0,1.754-0.174,2.362-0.521c0.608-0.349,0.913-1.16,0.913-2.436c0-1.024-0.246-1.696-0.739-2.015 s-1.067-0.479-1.725-0.479h-5.913V31.319z"/><path d="M87.92,13.841v21.102h-4.059V13.841H87.92z"/><path d="M93.311,33.696c-0.754-0.677-1.328-1.585-1.725-2.725c-0.396-1.141-0.594-2.367-0.594-3.682 c0-1.353,0.188-2.58,0.564-3.681c0.377-1.102,0.933-1.985,1.668-2.652c0.733-0.667,1.579-1.164,2.535-1.493 c0.957-0.328,1.947-0.493,2.972-0.493c1.063,0,2.058,0.159,2.985,0.478s1.754,0.807,2.479,1.464 c0.725,0.657,1.285,1.556,1.682,2.696c0.396,1.14,0.594,2.368,0.594,3.681c0,1.353-0.188,2.58-0.565,3.682 c-0.376,1.102-0.933,1.985-1.667,2.651c-0.734,0.667-1.58,1.165-2.536,1.493s-1.946,0.493-2.971,0.493 c-1.063,0-2.058-0.16-2.985-0.479C94.818,34.812,94.007,34.334,93.311,33.696z M95.81,24.218c-0.194,0.367-0.37,0.826-0.526,1.376 c-0.155,0.551-0.232,1.117-0.232,1.696c0,0.58,0.077,1.145,0.232,1.695c0.156,0.551,0.371,1.068,0.643,1.551 c0.273,0.483,0.668,0.87,1.184,1.16c0.517,0.29,1.057,0.435,1.622,0.435c0.564,0,1.101-0.136,1.606-0.406 c0.507-0.271,0.9-0.656,1.184-1.159c0.282-0.502,0.502-1.029,0.657-1.58s0.233-1.115,0.233-1.695c0-0.579-0.078-1.146-0.233-1.696 c-0.155-0.55-0.37-1.067-0.643-1.55c-0.272-0.482-0.667-0.869-1.184-1.159s-1.057-0.435-1.621-0.435 c-0.565,0-1.101,0.136-1.606,0.406C96.618,23.126,96.18,23.58,95.81,24.218z"/><path d="M123.369,19.232v16.116c0,0.967-0.223,1.875-0.667,2.726c-0.444,0.85-1.01,1.497-1.695,1.941 c-0.687,0.444-1.426,0.769-2.218,0.972c-0.792,0.202-1.884,0.304-3.275,0.304c-2.087,0-3.705-0.425-4.854-1.275 c-1.15-0.851-1.726-1.933-1.726-3.246h4.262c0,0.482,0.253,0.898,0.76,1.246s1.209,0.522,2.106,0.522 c0.936,0,1.765-0.29,2.486-0.87c0.721-0.579,1.082-1.295,1.082-2.145v-2.203c-0.777,0.831-1.438,1.42-1.981,1.768 c-0.544,0.348-1.302,0.522-2.273,0.522c-1.107,0-1.977-0.126-2.607-0.377c-0.632-0.252-1.287-0.72-1.967-1.406 c-0.681-0.686-1.205-1.574-1.574-2.666s-0.553-2.275-0.553-3.551c0-1.353,0.198-2.619,0.597-3.797s0.908-2.087,1.53-2.725 c0.621-0.638,1.311-1.149,2.068-1.536c0.758-0.386,1.612-0.58,2.564-0.58c1.088,0,1.816,0.159,2.186,0.478s1.039,1.039,2.011,2.16 v-2.377H123.369z M113.079,24.42c-0.193,0.367-0.367,0.826-0.521,1.376c-0.155,0.551-0.232,1.117-0.232,1.695 c0,0.58,0.077,1.146,0.232,1.696c0.154,0.551,0.366,1.068,0.638,1.551c0.271,0.483,0.661,0.87,1.174,1.159 c0.512,0.29,1.048,0.436,1.608,0.436s1.092-0.136,1.595-0.406c0.502-0.271,0.894-0.657,1.174-1.159 c0.279-0.503,0.497-1.029,0.652-1.58c0.154-0.551,0.231-1.116,0.231-1.696c0-0.578-0.077-1.145-0.231-1.695 c-0.155-0.55-0.367-1.067-0.638-1.55c-0.271-0.483-0.662-0.87-1.175-1.16c-0.512-0.29-1.048-0.435-1.608-0.435 s-1.092,0.135-1.594,0.406C113.881,23.329,113.446,23.783,113.079,24.42z"/></g></svg>
