<?xml version="1.0" encoding="utf-8"?>
<!-- Generator: Adobe Illustrator 16.0.0, SVG Export Plug-In . SVG Version: 6.00 Build 0)  -->
<!DOCTYPE svg PUBLIC "-//W3C//DTD SVG 1.1//EN" "http://www.w3.org/Graphics/SVG/1.1/DTD/svg11.dtd">
<svg version="1.1" id="Layer_1" xmlns="http://www.w3.org/2000/svg" xmlns:xlink="http://www.w3.org/1999/xlink" x="0px" y="0px"
	 width="50px" height="50px" viewBox="0 0 50 50" enable-background="new 0 0 50 50" xml:space="preserve">
<g>
	<g>
		<path fill="#DA2C45" d="M1.859,44.71c-0.285-0.195-0.505-0.474-0.658-0.837s-0.229-0.799-0.229-1.306
			c0-0.511,0.074-0.952,0.223-1.319c0.148-0.367,0.361-0.648,0.637-0.843s0.604-0.291,0.983-0.291c0.388,0,0.721,0.086,0.998,0.258
			c0.275,0.17,0.492,0.412,0.647,0.723L4.05,41.334c-0.146-0.27-0.318-0.462-0.514-0.578c-0.197-0.118-0.437-0.176-0.72-0.176
			c-0.407,0-0.725,0.176-0.957,0.524c-0.23,0.35-0.345,0.836-0.345,1.456c0,0.407,0.052,0.759,0.157,1.056
			c0.105,0.298,0.256,0.524,0.453,0.682c0.196,0.157,0.425,0.237,0.685,0.237c0.324,0,0.577-0.073,0.758-0.217
			c0.18-0.145,0.348-0.368,0.503-0.674l0.432,0.26c-0.164,0.356-0.382,0.628-0.653,0.815C3.575,44.906,3.252,45,2.878,45
			C2.485,45,2.146,44.903,1.859,44.71z"/>
		<path fill="#DA2C45" d="M7.908,44.892l-1.186-2.063H5.797v2.063H5.283v-4.675h1.562c0.284,0,0.533,0.056,0.748,0.165
			s0.379,0.264,0.494,0.463c0.114,0.198,0.171,0.426,0.171,0.681c0,0.312-0.094,0.578-0.282,0.799
			c-0.187,0.222-0.436,0.371-0.746,0.449l1.22,2.118H7.908z M5.797,42.403h0.979c0.301,0,0.534-0.08,0.696-0.24
			c0.162-0.159,0.243-0.371,0.243-0.638c0-0.264-0.081-0.478-0.243-0.64c-0.162-0.161-0.395-0.244-0.696-0.244H5.797V42.403z"/>
		<path fill="#DA2C45" d="M9.258,44.892v-4.675h2.618v0.433H9.771v1.63h1.644v0.419H9.771v1.768h2.125v0.426H9.258z"/>
		<path fill="#DA2C45" d="M15.61,44.892l-0.479-1.309h-1.94l-0.431,1.309h-0.514l1.659-4.675h0.479l1.707,4.675H15.61z
			 M13.349,43.157h1.625l-0.836-2.269L13.349,43.157z"/>
		<path fill="#DA2C45" d="M17.337,44.892v-4.25h-1.473v-0.425h3.453v0.425h-1.473v4.25H17.337z"/>
		<path fill="#DA2C45" d="M20.424,44.689c-0.304-0.209-0.542-0.497-0.712-0.868c-0.172-0.37-0.257-0.79-0.257-1.261
			c0-0.47,0.085-0.893,0.257-1.264c0.171-0.372,0.409-0.663,0.712-0.871c0.304-0.207,0.65-0.312,1.039-0.312
			c0.388,0,0.734,0.104,1.039,0.312c0.303,0.208,0.541,0.499,0.712,0.871c0.172,0.371,0.257,0.796,0.257,1.271
			c0,0.472-0.085,0.89-0.257,1.258c-0.171,0.368-0.409,0.655-0.712,0.864C22.197,44.897,21.851,45,21.463,45
			C21.074,45,20.729,44.897,20.424,44.689z M22.227,44.277c0.227-0.167,0.403-0.399,0.531-0.698c0.128-0.3,0.192-0.639,0.192-1.019
			c0-0.379-0.064-0.719-0.192-1.021c-0.128-0.301-0.305-0.536-0.531-0.705c-0.227-0.17-0.481-0.255-0.764-0.255
			c-0.284,0-0.539,0.085-0.765,0.255c-0.226,0.169-0.403,0.404-0.531,0.705c-0.127,0.302-0.192,0.642-0.192,1.021
			c0,0.38,0.064,0.719,0.192,1.019c0.128,0.299,0.305,0.531,0.531,0.698s0.48,0.25,0.765,0.25
			C21.745,44.527,22,44.444,22.227,44.277z"/>
		<path fill="#DA2C45" d="M27.014,44.892l-1.186-2.063h-0.925v2.063h-0.514v-4.675h1.563c0.283,0,0.533,0.056,0.747,0.165
			c0.215,0.109,0.379,0.264,0.493,0.463c0.114,0.198,0.17,0.426,0.17,0.681c0,0.312-0.093,0.578-0.279,0.799
			c-0.188,0.222-0.436,0.371-0.747,0.449l1.221,2.118H27.014z M24.903,42.403h0.98c0.301,0,0.533-0.08,0.695-0.24
			c0.163-0.159,0.243-0.371,0.243-0.638c0-0.264-0.08-0.478-0.243-0.64c-0.162-0.161-0.395-0.244-0.695-0.244h-0.98V42.403z"/>
	</g>
</g>
<g>
	<g>
		<path d="M31.303,44.83v-2.103h-1.826v2.103h-0.981v-4.685h0.981v1.764h1.826v-1.764h0.988v4.685H31.303z"/>
		<path d="M34.829,44.992c-0.723,0-1.28-0.212-1.667-0.636c-0.389-0.423-0.582-1.032-0.582-1.827c0-0.396,0.049-0.749,0.147-1.065
			c0.099-0.314,0.244-0.581,0.438-0.801c0.193-0.219,0.428-0.385,0.705-0.5c0.278-0.115,0.597-0.172,0.959-0.172
			c0.358,0,0.677,0.057,0.956,0.172c0.28,0.115,0.514,0.283,0.702,0.504c0.188,0.222,0.331,0.491,0.431,0.808
			c0.099,0.318,0.148,0.677,0.148,1.076c0,0.809-0.192,1.418-0.575,1.827C36.107,44.787,35.554,44.992,34.829,44.992z
			 M34.829,44.151c0.174,0,0.339-0.031,0.495-0.095c0.154-0.063,0.289-0.16,0.405-0.289c0.114-0.129,0.205-0.296,0.271-0.497
			c0.065-0.202,0.099-0.441,0.099-0.72c0-0.555-0.108-0.977-0.325-1.263c-0.216-0.286-0.531-0.43-0.945-0.43
			c-0.413,0-0.73,0.144-0.952,0.43c-0.221,0.286-0.331,0.708-0.331,1.263s0.111,0.961,0.334,1.217
			C34.104,44.024,34.42,44.151,34.829,44.151z"/>
		<path d="M40.134,40.146h1.002v3.125c0,0.569-0.167,0.997-0.502,1.287c-0.333,0.289-0.808,0.435-1.424,0.435
			c-0.569,0-1.019-0.138-1.35-0.409c-0.333-0.273-0.499-0.691-0.499-1.256v-3.182h0.996v3.089c0,0.292,0.071,0.522,0.218,0.692
			c0.146,0.169,0.353,0.253,0.621,0.253c0.625,0,0.938-0.303,0.938-0.909V40.146z"/>
		<path d="M44.147,41.527c-0.023-0.239-0.11-0.418-0.262-0.535c-0.149-0.117-0.373-0.176-0.67-0.176
			c-0.277,0-0.485,0.047-0.628,0.141c-0.141,0.095-0.211,0.23-0.211,0.408c0,0.151,0.056,0.271,0.165,0.36
			c0.111,0.09,0.298,0.167,0.561,0.233c0.269,0.065,0.524,0.13,0.767,0.193s0.449,0.135,0.624,0.214
			c0.104,0.048,0.2,0.102,0.289,0.163c0.09,0.062,0.168,0.138,0.233,0.227s0.117,0.195,0.154,0.316
			c0.038,0.122,0.057,0.266,0.057,0.431c0,0.259-0.046,0.481-0.137,0.667c-0.092,0.186-0.222,0.339-0.389,0.462
			c-0.166,0.123-0.364,0.213-0.593,0.271c-0.228,0.059-0.478,0.089-0.751,0.089c-0.291,0-0.557-0.032-0.798-0.096
			c-0.238-0.063-0.446-0.16-0.619-0.293c-0.175-0.132-0.312-0.295-0.41-0.49s-0.15-0.424-0.155-0.688h0.946
			c0.009,0.241,0.106,0.43,0.292,0.568s0.437,0.208,0.751,0.208c0.293,0,0.517-0.057,0.674-0.172
			c0.158-0.115,0.236-0.278,0.236-0.491c0-0.07-0.011-0.135-0.031-0.19c-0.021-0.057-0.06-0.109-0.113-0.159
			c-0.054-0.048-0.129-0.094-0.222-0.134c-0.094-0.039-0.214-0.076-0.361-0.108c-0.29-0.065-0.536-0.124-0.735-0.173
			c-0.201-0.05-0.383-0.111-0.548-0.188c-0.254-0.113-0.447-0.26-0.581-0.44s-0.202-0.42-0.202-0.717
			c0-0.212,0.036-0.404,0.106-0.581s0.178-0.329,0.321-0.455c0.144-0.127,0.321-0.226,0.535-0.297
			c0.215-0.07,0.465-0.104,0.752-0.104c0.296,0,0.56,0.037,0.79,0.112s0.425,0.181,0.583,0.316c0.156,0.138,0.279,0.3,0.365,0.488
			c0.088,0.188,0.136,0.395,0.146,0.619H44.147z"/>
		<path d="M45.467,44.83v-4.685h3.442v0.818h-2.49v1.002h2.292v0.825h-2.292v1.206h2.603v0.833H45.467z"/>
	</g>
</g>
<rect x="1" y="5" width="48" height="30"/>
<polygon fill="#DA2C45" points="49.027,30.225 49.022,20.316 37.452,8.747 33.706,5 3.961,34.745 13.865,34.745 33.706,14.904 "/>
</svg>
