<?xml version="1.0" encoding="utf-8"?>
<!-- Generator: Adobe Illustrator 16.0.0, SVG Export Plug-In . SVG Version: 6.00 Build 0)  -->
<!DOCTYPE svg PUBLIC "-//W3C//DTD SVG 1.1//EN" "http://www.w3.org/Graphics/SVG/1.1/DTD/svg11.dtd">
<svg version="1.1" id="Layer_1" xmlns="http://www.w3.org/2000/svg" xmlns:xlink="http://www.w3.org/1999/xlink" x="0px" y="0px"
	 width="97px" height="37.167px" viewBox="0 0 97 37.167" enable-background="new 0 0 97 37.167" xml:space="preserve">
<rect y="-16.167" display="none" fill="#FFFFFF" width="71" height="71"/>
<rect y="3.833" width="48" height="30"/>
<polygon fill="#DA2C45" points="48.027,29.558 48.022,19.649 36.452,8.079 32.706,4.333 2.961,34.078 12.865,34.078 32.706,14.237 
	"/>
<g>
	<path d="M62.512,21.088c0,0.4-0.081,0.768-0.24,1.103c-0.16,0.336-0.375,0.625-0.645,0.87s-0.585,0.435-0.945,0.569
		c-0.36,0.136-0.745,0.203-1.155,0.203h-5.025v-10.65h5.13c0.37,0,0.705,0.08,1.005,0.24c0.3,0.16,0.555,0.368,0.765,0.623
		s0.373,0.545,0.488,0.87c0.115,0.325,0.172,0.652,0.172,0.982c0,0.54-0.135,1.033-0.405,1.478c-0.27,0.445-0.645,0.778-1.125,0.998
		c0.609,0.18,1.092,0.515,1.447,1.005C62.334,19.868,62.512,20.438,62.512,21.088z M55.552,14.098v3.93h3.66
		c0.26,0,0.502-0.055,0.728-0.165c0.225-0.11,0.417-0.255,0.578-0.435c0.16-0.18,0.285-0.388,0.375-0.623
		c0.09-0.235,0.135-0.482,0.135-0.743c0-0.27-0.042-0.525-0.127-0.765c-0.085-0.24-0.205-0.447-0.36-0.623
		c-0.155-0.175-0.337-0.315-0.547-0.42s-0.44-0.157-0.69-0.157H55.552z M61.462,20.908c0-0.261-0.045-0.513-0.135-0.758
		c-0.09-0.245-0.218-0.46-0.383-0.645c-0.165-0.185-0.36-0.335-0.585-0.45c-0.225-0.115-0.467-0.173-0.728-0.173h-4.08v4.035h3.975
		c0.27,0,0.522-0.055,0.758-0.165c0.235-0.109,0.44-0.258,0.615-0.442s0.313-0.399,0.413-0.646
		C61.412,21.421,61.462,21.168,61.462,20.908z"/>
	<path d="M64.327,12.883h1.02v9.181c0,0.289,0.08,0.518,0.24,0.682c0.16,0.166,0.385,0.248,0.675,0.248
		c0.11,0,0.24-0.016,0.39-0.045c0.15-0.03,0.29-0.07,0.42-0.12l0.18,0.825c-0.19,0.08-0.423,0.145-0.698,0.194
		s-0.513,0.075-0.712,0.075c-0.47,0-0.84-0.133-1.11-0.397s-0.405-0.638-0.405-1.117V12.883z"/>
	<path d="M71.692,23.983c-0.57,0-1.09-0.108-1.56-0.322c-0.47-0.215-0.877-0.508-1.223-0.878c-0.345-0.37-0.612-0.8-0.802-1.29
		c-0.19-0.49-0.285-1.006-0.285-1.545c0-0.55,0.098-1.07,0.292-1.56c0.195-0.49,0.465-0.92,0.81-1.29s0.752-0.665,1.223-0.885
		c0.47-0.22,0.985-0.33,1.545-0.33s1.078,0.11,1.552,0.33c0.475,0.22,0.885,0.515,1.23,0.885c0.344,0.37,0.615,0.8,0.811,1.29
		c0.193,0.49,0.291,1.01,0.291,1.56c0,0.539-0.094,1.055-0.285,1.545c-0.189,0.49-0.457,0.92-0.801,1.29
		c-0.346,0.37-0.756,0.663-1.23,0.878C72.785,23.875,72.262,23.983,71.692,23.983z M68.857,19.963c0,0.44,0.075,0.848,0.225,1.223
		c0.15,0.375,0.352,0.705,0.607,0.989c0.255,0.285,0.555,0.508,0.9,0.668c0.345,0.16,0.712,0.24,1.103,0.24s0.757-0.082,1.103-0.248
		c0.344-0.164,0.646-0.39,0.906-0.674c0.26-0.285,0.465-0.618,0.615-0.998s0.225-0.79,0.225-1.23c0-0.43-0.074-0.837-0.225-1.222
		c-0.15-0.385-0.355-0.72-0.615-1.005s-0.563-0.51-0.906-0.675c-0.346-0.165-0.713-0.247-1.103-0.247s-0.755,0.083-1.095,0.247
		c-0.34,0.165-0.64,0.393-0.9,0.683c-0.26,0.29-0.465,0.628-0.615,1.013C68.932,19.11,68.857,19.523,68.857,19.963z"/>
	<path d="M80.421,23.938c-0.54,0-1.032-0.113-1.478-0.338c-0.444-0.225-0.83-0.522-1.154-0.893
		c-0.325-0.369-0.578-0.795-0.758-1.275c-0.18-0.479-0.271-0.975-0.271-1.484c0-0.54,0.088-1.058,0.263-1.553
		s0.423-0.927,0.743-1.297c0.319-0.37,0.702-0.665,1.147-0.885c0.444-0.22,0.938-0.33,1.478-0.33c0.669,0,1.249,0.168,1.739,0.503
		s0.91,0.757,1.261,1.267v-1.635h0.914v7.845c0,0.54-0.103,1.018-0.307,1.433c-0.205,0.414-0.48,0.762-0.825,1.042
		s-0.75,0.49-1.215,0.63c-0.466,0.141-0.958,0.21-1.478,0.21c-0.9,0-1.625-0.16-2.176-0.479c-0.55-0.32-0.995-0.75-1.335-1.29
		l0.631-0.495c0.31,0.5,0.72,0.867,1.229,1.103c0.51,0.234,1.06,0.353,1.65,0.353c0.38,0,0.739-0.053,1.08-0.157
		c0.34-0.105,0.637-0.261,0.893-0.466c0.255-0.205,0.457-0.465,0.607-0.779c0.149-0.315,0.225-0.683,0.225-1.103v-1.546
		c-0.3,0.501-0.71,0.896-1.23,1.186C81.536,23.793,80.991,23.938,80.421,23.938z M80.706,23.083c0.3,0,0.595-0.055,0.885-0.165
		s0.553-0.257,0.788-0.442c0.234-0.186,0.433-0.393,0.592-0.623c0.16-0.229,0.266-0.465,0.315-0.705v-2.415
		c-0.11-0.28-0.26-0.54-0.45-0.78c-0.189-0.24-0.405-0.445-0.645-0.615c-0.24-0.17-0.498-0.305-0.772-0.405
		c-0.275-0.1-0.553-0.15-0.833-0.15c-0.44,0-0.832,0.092-1.178,0.277c-0.345,0.185-0.637,0.427-0.877,0.728
		c-0.24,0.3-0.423,0.64-0.548,1.02s-0.188,0.765-0.188,1.155c0,0.42,0.075,0.82,0.226,1.2c0.149,0.38,0.357,0.713,0.622,0.998
		c0.265,0.284,0.572,0.51,0.923,0.674C79.916,23.001,80.296,23.083,80.706,23.083z"/>
</g>
</svg>
